<svg xmlns="http://www.w3.org/2000/svg" viewBox="0 0 399.7 71.79"><defs><style>.cls-1{fill:#fff;}.cls-2{fill:#a51c18;}</style></defs><title>Recurso 2</title><g id="Capa_2" data-name="Capa 2"><g id="Capa_1-2" data-name="Capa 1"><path class="cls-1" d="M34.2,27.28V56.89c0,9.12-7.21,14.9-17.81,14.9a28,28,0,0,1-15-4.23l4-8.11a18.67,18.67,0,0,0,10,3c4.35,0,6.92-2,6.92-5.18V54a10.84,10.84,0,0,1-8.7,3.87C5.72,57.84,0,51.65,0,42.17c0-9.23,5.54-15.31,13.35-15.31a11.21,11.21,0,0,1,8.94,3.93V27.28ZM22.29,42.53c0-4.11-2.21-6.79-5.55-6.79s-5.48,2.74-5.48,6.79,2.21,6.67,5.48,6.67S22.29,46.52,22.29,42.53Z"/><path class="cls-1" d="M182.26,16.26h11.39V31.93a16,16,0,0,1,3.82-3.58,10,10,0,0,1,5.71-1.55A10.5,10.5,0,0,1,211.3,30q2.91,3.16,2.91,8.7v21.1H202.83V42.3a5.88,5.88,0,0,0-1.24-4,4.12,4.12,0,0,0-3.24-1.37A4.47,4.47,0,0,0,195,38.25a5.61,5.61,0,0,0-1.32,4V59.76H182.26Z"/><path class="cls-2" d="M283.17.27l-8.35.27,5.74,6.17a43.16,43.16,0,0,1-6.76,2.48,104.16,104.16,0,0,1-24.58,3.41,121.34,121.34,0,0,1-22.8-1.41c-3-.49-4.78-.91-4.78-.91s-2-.27-4.65-.77-6-1.31-8.7-2.14c-4.52-1.58-6-2.17-5.88-1.39s2,2.56,4.78,4.18a37.46,37.46,0,0,0,6.61,3.15c3.59,1.41,7.39,2.4,7.39,2.41s1.64.37,4.36.81l.41.07c-.13.11-.29.22-.33.34,0-.1.58.12.27.35,0,.08-.78.32-.5.54s.06.56.1.85l-.19-.06c.23,1.11-.31,2.35.2,3.31.6-.2-.69.28,0,.07l.06.36h-.1c-.19.21-1,.42-.34.68.55,0-.22.35.28.22-.94,1,.53,1.5-.51,2.57l.09-.07.08.25-.47-.08c.38.14-.26.56.18.54l0,0c.44,0,.25.24.39.37-.21,0-.27,0-.29-.06s-.06.09-.21.2c.51.44-.08.91.35,1.24-1.75,0-3.53.08-5.12.08a44.91,44.91,0,0,1-4.79-.28c-.41-.06-.71-.14-.88-.17s-.3.1-.3.28c-.07.44.7,1.26,1.75,1.77a18.2,18.2,0,0,0,4,1.4,31.12,31.12,0,0,0,4.54.88c0,.36-.05.78.47,1,.35.59-.35.85-.3,1.32.73-.07.12.33.47.47-.64,0,.06.29-.45.36h.37l.1.73.09,0c.32,0,0,.13.1.23l-.45.13.48,0c.09.07,0,.09-.08.13h.15c.2.17,0,.35-.46.36.07.08.33,0,.3.13s-.26,0-.38,0c.13.15.4.17.24.43l.2-.1c-.19.15.36.24-.13.45h-.63l.28-.21-.63.33c.07.08.17,0,.33,0-.28.21.31.23-.2.33l.43.05-.39.15c.26,0,.72-.1.87.15l.1.22-.49-.07c.18.13.78.2.28.35l.37,0c.15.2-.62.05-.33.23l.31-.05c-.07.48-.69.79-.25,1.22h.15c.14.16,0,.41,0,.48l-.07,0-.1.32.27,0-.12.23h.21c.2.23.09.43-.15.61l-.12-.08a5.82,5.82,0,0,1-1.12.11c0,.18-.46.06-.21.31a.75.75,0,0,1,.47,0c-.27.25-.08.15-.63.32a1.2,1.2,0,0,1,1.15.25c0,.45-.62.47-.3.81l.58.21c.08.18-.73.14-.45.28.22.37-.32,0-.15.34h0l.05,0c.23.18,0,.25,0,.39l-.19.2c-.58,0,0,.21.05.31l-.42,0a1.84,1.84,0,0,1,.64,1.34c.28.06.17.21.06.37l-.17-.09a2.24,2.24,0,0,1,.24,1.61l-.35.12a.66.66,0,0,1,.65.17c0,.15-.14.41-.16.64H225c0-.39.21-.95.21-1.25l.35,0,.24.32-.44.08c.43.44.1.62.14.88s-.15.31-.36.33l0,0-.06,0h0a2.84,2.84,0,0,1,.6.6v-.26l.41.29c.21.22-.85,0-.13.56l.38.18c-.38,0,.15.52.4.8l-1.15-.39c0,.31.26.67,0,.91a.41.41,0,0,1,.31.07l-.2.15.19.11c-.25.14-.66,0-1.09.07h.11c-.58,0,.55,1,.32,1.22,0-.06-.34-.16-.11,0-.11,0-.19-.11-.29-.17,0,.16.23.17.47.54-.53.06-.07.51,0,.78.1,0,.26.14.3,0l.35.33c0,.1-.48-.23-.33,0s.53,0,.59.44c.16.26-.27.5.06.73,0,.2,1.23,1.13.73,1.26l.26,0a.5.5,0,0,1,0,.3l0,0c0,.06,0,.07-.1.07H227c.09.1.4.12.52.33l-.13,0c.17.07.35.33.23,0a10.7,10.7,0,0,1,1.55,1.27c.26-.11.41-.56.48-.8l-.24-.12c.25.06.07-.3.56-.13-.39-.42.33-.33.52-.47l-.33-.17.1-.5A.43.43,0,0,1,230,58c.05-.2.31-.32.44-.47l.32.27c-.14-.11,0-.1,0-.15h-.06c-1.38-1.53-.19-1.56-.31-1.69l-.11,0c.46-.9,0-1.42.26-2.48l.51.36c.21-.24.7-3.1.29-3.39-.51-1.46.56-2.85-.06-4.15-.44-2.74.52-5.25.53-8l0,0c-.14-.48-.5-1.1-.1-1.48a.16.16,0,0,1-.12,0l.09-.34-.05,0a3.23,3.23,0,0,1,.51-2.23c-.3-.17-.12-.82-.41-1a1.43,1.43,0,0,0,0-.22c1.64.17,2.78.27,2.78.27l4.29.17c2.78.12,7.22.14,11.81.06,2.84,0,5.7-.1,8.33-.1a.63.63,0,0,0,.34.22c.36.56-.33.82-.27,1.29.73-.1.14.31.49.43-.64,0,.08.3-.44.38h.38l.12.71.1-.06c.31,0,0,.13.1.22l-.44.15.47-.05c.1.07,0,.09-.08.14l.16,0c.2.16,0,.34-.44.36.07.08.33,0,.29.11s-.25,0-.38,0c.15.14.42.15.27.41l.19-.12c-.18.16.37.23-.11.46l-.63,0,.27-.21-.61.35c.07.07.16,0,.33,0-.27.21.31.21-.19.33l.43,0-.38.17c.26,0,.71-.14.88.1l.1.22-.49,0c.19.11.79.16.3.33H260c.15.19-.62.08-.31.24l.3-.06c0,.47-.65.8-.18,1.2h.14c.14.14,0,.39,0,.46l-.08,0-.08.32.27,0-.1.22h.21c.21.22.1.42-.12.6l-.13-.06a7,7,0,0,1-1.11.16c0,.17-.45.09-.19.31a.74.74,0,0,1,.47,0c-.26.25-.07.15-.61.34a1.24,1.24,0,0,1,1.16.18c0,.43-.6.48-.26.79l.58.17c.1.17-.72.17-.43.28.23.35-.31,0-.14.34h0l.05,0h0c.24.15,0,.23,0,.36l-.19.21c-.57,0,0,.19.07.29l-.42,0a1.69,1.69,0,0,1,.69,1.25c.28.05.18.19.07.34l-.17-.07a1.91,1.91,0,0,1,.28,1.5l-.35.12a.71.71,0,0,1,.66.15c0,.15-.14.39-.15.61h.16c0-.37.2-.9.19-1.19l.35,0,.24.3-.44.08c.44.41.11.59.16.83s-.15.3-.37.31v0l-.06,0h0a3,3,0,0,1,.6.58v-.25l.41.27c.21.22-.85,0-.14.54l.39.17c-.39,0,.13.51.38.78l-1.15-.41c0,.29.24.65,0,.87a.35.35,0,0,1,.3.07l-.2.13.18.12c-.25.12-.66,0-1.09,0h.1c-.57,0,.51,1,.26,1.15,0-.07-.32-.17-.11,0-.11,0-.18-.12-.27-.18,0,.15.22.17.42.54-.53,0-.1.45-.09.7.09,0,.24.16.29,0l.32.34c0,.1-.45-.26-.33,0s.52.08.54.48-.33.43,0,.68c0,.18,1,1.29.5,1.33l.25.06a.41.41,0,0,1-.05.3h0c0,.06-.05.06-.11,0l-.13,0h.05l-.08,0c.05.12.35.21.41.45l-.13,0c.14.12.25.43.23.05a3.81,3.81,0,0,1,.68,1,5.06,5.06,0,0,1,.29.82c.3,0,.67-.54.83-.8a1.92,1.92,0,0,0-.19-.2c.22.14.17-.34.58,0-.23-.59.43-.3.66-.43l-.28-.27.24-.55a.42.42,0,0,1-.23-.12c.08-.22.37-.31.53-.45l.25.35c-.11-.14,0-.12,0-.18h0c-1.09-1.9,0-1.71,0-1.9l-.12,0c.57-.91.11-1.5.46-2.58l.49.4c.25-.25.82-3.2.39-3.49-.51-1.48.52-2.9-.16-4.17-.55-2.69.25-5.15.15-7.81l0,0c-.16-.45-.55-1-.17-1.41a.24.24,0,0,1-.12,0l.08-.33-.05,0a2.87,2.87,0,0,1,.43-2.14c-.3-.16-.15-.79-.44-1a.17.17,0,0,1,0-.07c1.51,0,2.86,0,3.93-.07l.94,0c.21,0,.41,0,.6,0l.69.06a.55.55,0,0,0,.41-.1l.32-.13c.14-.06.28-.11.42-.18a2.23,2.23,0,0,0,.73-.55.94.94,0,0,0,.23-.77,5,5,0,0,0-.24-.94,2.2,2.2,0,0,0-.17-.67c-.08-.19-.19-.36-.22-.48a2.17,2.17,0,0,0-.29-.5c-.17-.23-.16-.53-.34-.83a.86.86,0,0,0-.34-.25l-.8-.07a8.69,8.69,0,0,0-1-.05l-1.19.05c-1,.05-2.29.07-3.81.06,0-.5.06-1,.06-1.49-.08-.06-.35,0-.33-.29l.43,0c-.66-.89.31-2-.61-2.82l.5-.32.05-4.29-.06-.15c2.33-.26,5.72-.67,7.24-1.42.58-.33,3.2-1.13,1.69-1.07.63-.11-1.59.14-.32-.33.6-.22,3.12.05,3.7-.82l-.17-.15a4,4,0,0,1-1.07.19L277,15A29.55,29.55,0,0,0,282,13.42l.35-.32a22.85,22.85,0,0,1-2.26.57c-1.67.62-3.87.93-5.56,1.36l-.15-.16a3.83,3.83,0,0,1-1,.12l-.44.22-.86,0c1.1-.26,2.17-.53,3.18-.82A44.31,44.31,0,0,0,284.2,11a.66.66,0,0,0,.18-.14l5.38,5.79.88-8.31.87-8.3ZM238.91,28.1l-5-.19s-.87,0-2.22.08c.06-.63.13-1.26.15-1.89-.07-.06-.34,0-.32-.31h.44c-.63-.94.39-2-.48-2.91l.5-.31.29-4.38-.29-.75.38.07a1.25,1.25,0,0,1,.42,0h0c.42.05.83.31,1.76.52a71.22,71.22,0,0,0,7.33,1.4,5.08,5.08,0,0,1,0,1.51,10.32,10.32,0,0,0,0,3c.31,1.38.07,2.85.31,4.25C241,28.17,239.84,28.15,238.91,28.1Zm4.2-.32,0,.42h0l.06-.42a17.72,17.72,0,0,0-.25-3.16A9.09,9.09,0,0,1,243.11,27.78Zm3.42.42h-.09a7.64,7.64,0,0,0,0-1.07,18.25,18.25,0,0,1,.12-3.14C246.63,25.39,246.56,26.77,246.53,28.2Zm13-5.26.09.35-.11,0c-.17.2-1,.45-.31.66.56,0-.2.35.3.2-.9,1,.59,1.42-.41,2.49l.09-.07.09.24-.47-.06c.38.13-.24.55.19.51l.05,0c.43,0,.25.23.4.35-.21,0-.28,0-.29-.05a1.34,1.34,0,0,1-.21.2.53.53,0,0,1,.22.29c-2.74,0-5.74.06-8.6.11l-3,0h0l-.51-.08c.69-2.16-.23-4.22.41-6.38.07.08.18,0,.26,0-.11,2.16-.11,4.14-.15,6.35a74,74,0,0,0,.27-8.7c1.33-.16,3.51.38,5,.3,1.9,0,4.22-.24,6.55-.47,0,.17,0,.36,0,.52l-.18,0c.29,1.06-.19,2.28.37,3.17C260.11,22.66,258.84,23.18,259.53,22.94Zm.32-5.46c-2.22.17-4.48.3-6.74.37,2.25-.12,4.49-.31,6.69-.55A.21.21,0,0,1,259.85,17.48Zm10.56-1.31-.4.07c.29,0,.27.05.32.1H270l-.17.08h.31c.75.14-1.11.43.64.18l.14.08a17.85,17.85,0,0,1-4.2.37l.88-.19-2.34.1.06-.41q3-.48,5.77-1.1C271.16,15.65,271,15.85,270.41,16.17Zm.91-.76.61-.14.09,0A1.55,1.55,0,0,1,271.32,15.41Z"/><polygon class="cls-2" points="258.56 42.51 258.79 42.48 258.79 42.46 258.56 42.51"/><path class="cls-2" d="M259.34,44.85h0C259.24,44.85,259.29,44.85,259.34,44.85Z"/><polygon class="cls-2" points="259.38 23.11 259.43 23.13 259.44 23.12 259.38 23.11"/><path class="cls-2" d="M259.43,23.13s-.07.1-.14.05c.1,0,.09.13.22.13S259.55,23.19,259.43,23.13Z"/><polygon class="cls-2" points="259.57 47.04 259.57 47.04 259.41 47.02 259.57 47.04"/><path class="cls-2" d="M261.63,58.32h-.16l.08,0A.11.11,0,0,0,261.63,58.32Z"/><path class="cls-2" d="M260.33,49.69h-.26c0,.17,0,.3.06.36h.07Z"/><path class="cls-2" d="M264.71,58.37h0C264.82,58.42,264.89,58.42,264.71,58.37Z"/><polygon class="cls-2" points="260.37 51.64 260.62 51.73 260.62 51.71 260.37 51.64"/><path class="cls-2" d="M260.07,55.27a.14.14,0,0,0,.08-.14C260.08,55.1,260,55.1,260.07,55.27Z"/><path class="cls-2" d="M263.9,59.91c0-.08-.09-.17-.11-.25l-.09.18C263.79,59.94,263.87,60,263.9,59.91Z"/><polygon class="cls-2" points="223.77 42.12 223.99 42.1 223.99 42.08 223.77 42.12"/><path class="cls-2" d="M224.41,44.6l0,0C224.31,44.6,224.36,44.6,224.41,44.6Z"/><polygon class="cls-2" points="225.37 22.16 225.42 22.19 225.43 22.18 225.37 22.16"/><path class="cls-2" d="M225.42,22.19s-.08.09-.14,0c.09,0,.08.14.21.14S225.54,22.25,225.42,22.19Z"/><path class="cls-2" d="M224.55,46.92h0l-.16,0Z"/><path class="cls-2" d="M227.24,58.66l-.16,0h.09A.18.18,0,0,0,227.24,58.66Z"/><path class="cls-2" d="M225.25,49.74H225c0,.18,0,.33.06.38h.08Z"/><path class="cls-2" d="M230.25,58.1h0C230.37,58.12,230.44,58.1,230.25,58.1Z"/><polygon class="cls-2" points="225.29 51.81 225.55 51.9 225.55 51.88 225.29 51.81"/><path class="cls-2" d="M225.19,55.73a.13.13,0,0,0,.07-.15C225.19,55.55,225.15,55.56,225.19,55.73Z"/><path class="cls-2" d="M229.85,59.49c0-.05-.13-.11-.18-.16l0,.16C229.76,59.54,229.86,59.58,229.85,59.49Z"/><path class="cls-1" d="M39.93,27.23H51.31v6.5a13.23,13.23,0,0,1,3.76-5.25A9.11,9.11,0,0,1,61.5,26.7V38.61h-1c-3,0-5.27.88-6.85,2.63s-2.39,4.49-2.39,8.22v10H39.93Z"/><path class="cls-1" d="M81.88,60.25a19,19,0,0,1-7.12-1.31,17.6,17.6,0,0,1-5.63-3.61,16.3,16.3,0,0,1-5-11.83v-.12a16,16,0,0,1,1.35-6.52,16.49,16.49,0,0,1,3.72-5.37,17.74,17.74,0,0,1,5.66-3.63A18.61,18.61,0,0,1,82,26.52a18.35,18.35,0,0,1,7.12,1.34,18,18,0,0,1,5.64,3.6,16.14,16.14,0,0,1,5,11.8v.12a16,16,0,0,1-1.34,6.53,16.55,16.55,0,0,1-3.72,5.36A17.87,17.87,0,0,1,89,58.91,18.73,18.73,0,0,1,81.88,60.25ZM82,50.59A6.64,6.64,0,0,0,84.8,50a6.1,6.1,0,0,0,2.12-1.54,7.25,7.25,0,0,0,1.34-2.27,7.79,7.79,0,0,0,.48-2.72v-.12a7.58,7.58,0,0,0-.51-2.78,6.94,6.94,0,0,0-1.43-2.27,7.32,7.32,0,0,0-2.18-1.57,6.35,6.35,0,0,0-2.74-.59,6.86,6.86,0,0,0-2.8.56A6.19,6.19,0,0,0,77,38.27a6.89,6.89,0,0,0-1.34,2.27,7.83,7.83,0,0,0-.48,2.72v.12a7.54,7.54,0,0,0,.51,2.78,6.68,6.68,0,0,0,1.43,2.27A6.94,6.94,0,0,0,79.26,50,6.27,6.27,0,0,0,82,50.59Z"/><path class="cls-1" d="M102.2,27.23h11.09l4.23,16.21,5-16.33h9.35l5,16.45,4.35-16.33h10.91l-10,32.48h-9.77L127.11,43l-5.36,16.75H112Z"/><path class="cls-1" d="M168.71,60.13c-3.44,0-6.11-.82-8-2.45s-2.87-4.37-2.87-8.22V36.35H154V27.23h3.82V19.07h11.38v8.16h7.51v9.12h-7.51V47.26a3.35,3.35,0,0,0,.77,2.47,3.23,3.23,0,0,0,2.33.74,8.11,8.11,0,0,0,2.2-.3,12.2,12.2,0,0,0,2.09-.77v8.88a15.71,15.71,0,0,1-3.52,1.34A17.31,17.31,0,0,1,168.71,60.13Z"/><path class="cls-1" d="M274,44.16V44c0-10.07,7.33-16,14.72-16,5.72,0,9.41,3.1,11.8,6.55V16h4.58v43.5h-4.58v-6.2c-2.51,3.7-6.14,6.86-11.8,6.86C281.29,60.13,274,54.29,274,44.16Zm26.69-.06V44c0-7.09-5.42-11.86-11.14-11.86-6,0-10.85,4.41-10.85,11.86v.12c0,7.27,5,11.92,10.85,11.92S300.65,51.19,300.65,44.1Z"/><path class="cls-1" d="M313.41,44.22V44.1A16.06,16.06,0,0,1,345.53,44v.12a16,16,0,0,1-16.15,16.09A15.78,15.78,0,0,1,313.41,44.22Zm27.41,0V44.1c0-6.62-4.95-12-11.44-12-6.68,0-11.26,5.42-11.26,11.92v.12c0,6.61,4.88,12,11.38,12C336.17,56.07,340.82,50.71,340.82,44.22Z"/><path class="cls-1" d="M348.45,68.89V65.13a14.93,14.93,0,0,0,2.26.18c2.09,0,3.52-1.25,3.52-4.11V28.66h4.59v32.6c0,5.42-2.86,7.93-7.51,7.93A11.3,11.3,0,0,1,348.45,68.89Zm5.48-52h5.25v5.06h-5.25Z"/><path class="cls-1" d="M367.58,44.22V44.1A16.06,16.06,0,0,1,399.7,44v.12a16,16,0,0,1-16.15,16.09A15.78,15.78,0,0,1,367.58,44.22Zm27.41,0V44.1c0-6.62-4.95-12-11.44-12-6.68,0-11.26,5.42-11.26,11.92v.12c0,6.61,4.88,12,11.38,12C390.34,56.07,395,50.71,395,44.22Z"/></g></g></svg>