<svg xmlns="http://www.w3.org/2000/svg" viewBox="0 0 652.17 117.13"><defs><style>.cls-1{fill:#1e1e1c;}.cls-2{fill:#a51c18;}</style></defs><title>Recurso 1</title><g id="Capa_2" data-name="Capa 2"><g id="Capa_1-2" data-name="Capa 1"><path class="cls-1" d="M55.81,44.5V92.83c0,14.87-11.77,24.3-29.07,24.3a45.66,45.66,0,0,1-24.41-6.9L8.85,97a30.47,30.47,0,0,0,16.23,4.86c7.1,0,11.28-3.31,11.28-8.46V88.06c-3.4,4.09-8.16,6.32-14.19,6.32C9.33,94.38,0,84.27,0,68.81c0-15.07,9-25,21.78-25,6.22,0,11.18,2.34,14.58,6.42V44.5ZM36.36,69.4c0-6.71-3.59-11.09-9-11.09s-8.95,4.47-8.95,11.09,3.6,10.88,9,10.88S36.36,75.91,36.36,69.4Z"/><path class="cls-1" d="M297.39,26.52H316V52.1a25.89,25.89,0,0,1,6.24-5.84,16.33,16.33,0,0,1,9.32-2.52q8.5,0,13.24,5.15t4.74,14.2V97.51H330.94V69q0-4.38-2-6.61a6.76,6.76,0,0,0-5.28-2.24,7.35,7.35,0,0,0-5.53,2.24Q316,64.65,316,69V97.51H297.39Z"/><path class="cls-2" d="M462,.44,448.42.89,457.78,11a70.31,70.31,0,0,1-11,4c-10.67,3.1-25.66,5.19-40.1,5.57a198.37,198.37,0,0,1-37.2-2.3c-4.85-.8-7.8-1.49-7.8-1.48s-3.25-.45-7.59-1.27A141,141,0,0,1,339.86,12c-7.38-2.57-9.76-3.54-9.59-2.27s3.32,4.19,7.8,6.83c-.54-.14,4.88,2.91,10.77,5.13s12.07,3.93,12.07,3.94,2.68.6,7.11,1.33l.66.1c-.21.19-.46.37-.53.56,0-.17,1,.19.43.57,0,.13-1.27.52-.8.88s.1.92.15,1.38l-.29-.08c.37,1.81-.52,3.83.32,5.39,1-.32-1.12.46,0,.11l.11.59-.17,0c-.31.33-1.69.68-.55,1.1.9,0-.37.57.46.35-1.54,1.65.86,2.45-.83,4.2l.14-.11.13.4-.76-.13c.62.24-.43.91.28.89l.07-.06c.71,0,.4.41.65.62-.36,0-.46-.07-.49-.11s-.09.14-.34.33c.83.72-.12,1.48.58,2-2.85.07-5.76.13-8.35.14a73.31,73.31,0,0,1-7.82-.47c-.68-.09-1.16-.22-1.45-.26a.41.41,0,0,0-.48.45c-.12.71,1.14,2,2.86,2.89A30,30,0,0,0,358.53,51,51.71,51.71,0,0,0,366,52.48c0,.58-.09,1.27.76,1.57.57,1-.58,1.37-.5,2.15,1.19-.12.2.53.77.76-1.05-.06.11.48-.74.59l.61,0,.16,1.19.16-.08c.52,0,0,.2.16.36l-.74.22.78,0c.16.12,0,.16-.13.22l.25,0c.32.28-.05.58-.75.59.12.12.54.08.48.2s-.42,0-.62,0c.23.25.67.28.4.7l.32-.17c-.3.25.6.41-.2.74h-1l.46-.33-1,.54c.11.13.27,0,.53.08-.45.33.5.37-.33.54l.71.08-.64.25c.42-.05,1.17-.18,1.43.23l.15.37-.8-.12c.3.21,1.27.33.45.58l.62,0c.23.33-1,.08-.54.37l.5-.08c-.11.78-1.13,1.29-.4,2h.24c.22.25.05.66,0,.78l-.12-.07-.16.53.44,0-.19.36h.34c.32.37.14.7-.24,1l-.21-.12a10.63,10.63,0,0,1-1.83.17c0,.29-.74.1-.33.51a1.16,1.16,0,0,1,.76,0c-.44.41-.13.25-1,.52a2,2,0,0,1,1.87.4c-.05.75-1,.78-.49,1.33l.94.34c.13.3-1.19.23-.73.45.35.61-.51,0-.25.57h-.05l.08.06c.36.28,0,.39,0,.62l-.31.34c-.95,0,.05.33.07.5l-.67.07a3,3,0,0,1,1,2.18c.46.1.28.35.09.6L366.2,77a3.49,3.49,0,0,1,.39,2.61l-.57.2a1.12,1.12,0,0,1,1.08.28c0,.24-.24.66-.26,1h.26c.06-.63.34-1.55.34-2l.56,0,.4.53-.72.12c.69.72.16,1,.23,1.45s-.25.5-.6.53l0,.06a.19.19,0,0,1-.1,0h0a5.05,5.05,0,0,1,1,1v-.42l.68.47c.35.35-1.39,0-.22.91l.63.29c-.62,0,.23.86.65,1.31L368,84.68c.06.5.42,1.1.07,1.49a.63.63,0,0,1,.5.11l-.32.24.3.19c-.4.23-1.06.06-1.77.1H367c-1,0,.91,1.64.52,2-.08-.09-.54-.24-.18,0-.17,0-.3-.18-.46-.28,0,.26.38.28.75.89-.86.09-.1.83-.05,1.27.16.06.42.23.48-.06l.57.53c0,.17-.78-.38-.53.06s.86,0,1,.72c.25.44-.45.82.08,1.19,0,.33,2,1.85,1.2,2.07l.43,0a.74.74,0,0,1,0,.49l.05,0c0,.09-.05.11-.16.1a.49.49,0,0,1-.21,0l.07,0h-.14c.13.17.65.19.83.53l-.2,0c.27.11.58.54.37,0a17.76,17.76,0,0,1,2.52,2.07c.43-.18.68-.91.79-1.31l-.39-.18c.42.09.11-.5.91-.22-.62-.69.54-.54.85-.77l-.54-.27.18-.81a.76.76,0,0,1-.41-.12c.07-.33.49-.53.72-.77l.51.44c-.23-.18,0-.17,0-.25h-.08c-2.26-2.5-.32-2.54-.51-2.77l-.19.08c.76-1.47-.06-2.32.43-4L377,88c.35-.4,1.15-5.06.47-5.53-.82-2.39.93-4.66-.1-6.78-.72-4.46.85-8.56.88-13.09l-.08,0c-.23-.78-.82-1.79-.18-2.41a.35.35,0,0,1-.2,0l.15-.55-.07,0a5.19,5.19,0,0,1,.84-3.63c-.5-.29-.21-1.35-.68-1.7l-.06-.37c2.67.28,4.53.45,4.53.45l7,.28c4.54.2,11.78.23,19.27.09,4.63-.07,9.31-.15,13.59-.16a1,1,0,0,0,.55.35c.6.92-.53,1.35-.43,2.11,1.19-.15.22.51.8.71-1.06,0,.12.48-.72.61h.61l.2,1.15.16-.09c.51,0,0,.21.18.36l-.73.24.76-.08c.17.11,0,.15-.12.22a1,1,0,0,1,.26,0c.33.26,0,.56-.72.6.11.12.54.06.48.18s-.42.06-.62,0c.24.23.68.25.43.67l.31-.19c-.29.26.61.38-.17.74l-1,.05.43-.34-1,.57c.12.12.27,0,.54.06-.44.34.51.33-.31.54l.71,0-.63.27c.42-.06,1.17-.22,1.44.17l.17.36-.8-.09c.3.19,1.28.26.48.54h.61c.25.31-1,.13-.51.39l.49-.1c-.07.76-1.07,1.31-.3,2h.24c.23.23.08.64,0,.76l-.12-.06-.13.52.44,0-.17.36h.34c.34.35.17.67-.19,1l-.21-.11a9.29,9.29,0,0,1-1.82.27c0,.28-.73.14-.3.51a1.29,1.29,0,0,1,.76-.07c-.42.41-.12.24-1,.55a2.08,2.08,0,0,1,1.89.29c0,.72-1,.8-.42,1.29l1,.29c.15.27-1.18.28-.71.46.38.57-.51.06-.22.56h0l.08,0h0c.38.25,0,.38,0,.59l-.3.33c-.94.06.07.32.1.48l-.67.09a2.76,2.76,0,0,1,1.12,2c.46.08.29.32.12.56l-.29-.12a3.07,3.07,0,0,1,.46,2.45l-.56.2a1.17,1.17,0,0,1,1.08.24c0,.24-.23.64-.25,1h.26c.06-.6.32-1.46.3-1.93l.57,0,.41.5-.72.12c.7.68.17,1,.25,1.37s-.24.47-.6.51l0,0a.19.19,0,0,1-.1,0h0a4.35,4.35,0,0,1,1,.93l0-.39.67.44c.34.35-1.39,0-.23.87l.63.29c-.62,0,.22.82.62,1.26l-1.86-.66c.06.48.39,1,0,1.41a.6.6,0,0,1,.5.12l-.33.22.3.18c-.41.2-1.08,0-1.78,0l.17,0c-.94,0,.83,1.57.42,1.86-.07-.1-.53-.27-.18,0-.17,0-.29-.19-.44-.29,0,.24.36.28.69.88-.86,0-.17.74-.16,1.15.16.07.39.26.48,0l.52.56c-.05.16-.74-.43-.53,0s.85.14.88.79c.19.44-.54.7-.07,1.11,0,.29,1.68,2.11.81,2.16l.41.11c0,.12,0,.37-.08.48h.05c0,.1-.08.09-.18,0a.31.31,0,0,1-.21,0h.08l-.14,0c.1.19.59.34.68.73l-.21,0c.23.19.4.7.37.08a5.87,5.87,0,0,1,1.11,1.72,9.27,9.27,0,0,1,.48,1.33c.49,0,1.09-.88,1.34-1.31a3.22,3.22,0,0,0-.31-.32c.37.22.28-.55,1,0-.37-1,.69-.49,1.08-.7l-.46-.45.38-.89a.82.82,0,0,1-.37-.2c.14-.36.6-.51.87-.74l.41.58c-.18-.24,0-.2,0-.29l-.08,0c-1.78-3.1.08-2.8-.06-3.1l-.2.06c.93-1.49.18-2.45.76-4.21l.8.66c.41-.41,1.33-5.23.62-5.7-.82-2.41.86-4.72-.25-6.8-.89-4.4.4-8.41.24-12.74l-.08.05c-.27-.75-.9-1.69-.28-2.31a.31.31,0,0,1-.19,0l.12-.54-.08,0a4.8,4.8,0,0,1,.71-3.5c-.49-.26-.24-1.29-.72-1.62,0,0,0-.09,0-.13,2.46,0,4.67,0,6.42-.1l1.52-.06c.35,0,.67,0,1,0l1.13.1a.9.9,0,0,0,.67-.16l.52-.22a6.14,6.14,0,0,0,.7-.3,3.75,3.75,0,0,0,1.18-.89,1.56,1.56,0,0,0,.39-1.26,10.25,10.25,0,0,0-.4-1.54,4.38,4.38,0,0,0-.27-1.08c-.14-.32-.32-.59-.38-.8a3.61,3.61,0,0,0-.46-.8c-.28-.38-.26-.87-.56-1.36a1.6,1.6,0,0,0-.55-.41l-1.31-.12c-.41,0-1-.06-1.64-.06l-1.93.07c-1.62.08-3.74.11-6.21.09,0-.81.08-1.62.09-2.42-.13-.1-.57,0-.54-.47l.7-.06c-1.07-1.44.51-3.27-1-4.59l.81-.53.09-7-.11-.24c3.81-.43,9.35-1.1,11.82-2.31.94-.55,5.22-1.86,2.75-1.75,1-.18-2.59.22-.51-.54,1-.36,5.09.07,6-1.34l-.27-.25a7,7,0,0,1-1.74.31l-.15-.15c2.72-.81,6.74-1.68,8.27-2.65l.57-.53c-1.62.24-3,1.06-3.69.93-2.72,1-6.31,1.52-9.07,2.23l-.25-.27a5.78,5.78,0,0,1-1.65.2l-.72.35-1.4.05c1.79-.43,3.55-.87,5.2-1.35a70.88,70.88,0,0,0,14.55-5.64.64.64,0,0,0,.29-.22l8.78,9.45,1.43-13.55L475.65,0ZM389.81,45.86l-8.19-.32-3.61.12c.1-1,.2-2,.24-3.07-.12-.11-.56-.08-.52-.51l.71,0c-1-1.53.65-3.33-.78-4.75l.82-.5.47-7.14-.47-1.24c.2,0,.41.09.62.12a2.07,2.07,0,0,1,.69-.05h0c.67.08,1.34.51,2.86.86a117.31,117.31,0,0,0,12,2.28,8.86,8.86,0,0,1,.05,2.47,16.17,16.17,0,0,0,0,5c.51,2.25.12,4.64.5,6.92C393.17,46,391.34,45.92,389.81,45.86Zm6.85-.53c0,.23,0,.45,0,.68h-.05c0-.23.06-.45.08-.68a28.14,28.14,0,0,0-.39-5.17A14.79,14.79,0,0,1,396.66,45.33Zm5.59.68h-.14a14.43,14.43,0,0,0,0-1.74,30.09,30.09,0,0,1,.19-5.12C402.42,41.42,402.3,43.68,402.25,46Zm21.22-8.58.13.57-.16,0c-.29.34-1.66.74-.51,1.09.91,0-.34.56.48.31-1.47,1.65,1,2.32-.66,4.07l.15-.11.14.39-.76-.1c.62.21-.4.9.31.84l.07-.06c.71-.05.41.38.66.57-.35,0-.46-.05-.48-.08a1.3,1.3,0,0,1-.33.32.88.88,0,0,1,.34.49c-4.46,0-9.35.09-14,.17-1.68,0-3.33.06-4.94.07h0l-.84-.12c1.13-3.52-.38-6.89.67-10.41.11.13.29,0,.42,0C404,39,404,42.24,403.9,45.85a124,124,0,0,0,.45-14.2c2.15-.26,5.72.63,8.11.5,3.11,0,6.89-.4,10.7-.78a8.29,8.29,0,0,0,0,.86l-.3-.06c.47,1.71-.31,3.7.6,5.16C424.4,37,422.34,37.82,423.47,37.43Zm.51-8.9c-3.61.27-7.3.48-11,.6,3.66-.21,7.32-.51,10.92-.91A.37.37,0,0,1,424,28.53Zm17.24-2.15-.65.13c.47-.05.44.07.51.15h-.5l-.28.12h.51c1.22.22-1.82.71,1,.3l.23.12a28.77,28.77,0,0,1-6.85.61l1.43-.31c-1.2,0-2.49.11-3.81.16l.09-.67q4.92-.78,9.42-1.79C442.44,25.53,442.23,25.87,441.22,26.38Zm1.48-1.24,1-.23.14.07A2.46,2.46,0,0,1,442.7,25.14Z"/><polygon class="cls-2" points="421.89 69.36 422.25 69.31 422.25 69.29 421.89 69.36"/><path class="cls-2" d="M423.16,73.18l0,0C423,73.18,423.07,73.18,423.16,73.18Z"/><polygon class="cls-2" points="423.21 37.71 423.3 37.74 423.32 37.73 423.21 37.71"/><path class="cls-2" d="M423.3,37.74s-.12.16-.22.08c.16,0,.14.21.36.21S423.5,37.83,423.3,37.74Z"/><polygon class="cls-2" points="423.53 76.76 423.53 76.75 423.27 76.72 423.53 76.76"/><path class="cls-2" d="M426.89,95.15h-.26l.13,0A.17.17,0,0,0,426.89,95.15Z"/><path class="cls-2" d="M424.78,81.08h-.43c0,.29,0,.5.09.59h.12Z"/><path class="cls-2" d="M431.92,95.24v0C432.09,95.32,432.21,95.31,431.92,95.24Z"/><polygon class="cls-2" points="424.84 84.26 425.25 84.41 425.24 84.38 424.84 84.26"/><path class="cls-2" d="M424.34,90.18a.21.21,0,0,0,.13-.22C424.36,89.9,424.28,89.91,424.34,90.18Z"/><path class="cls-2" d="M430.59,97.75c0-.13-.15-.28-.18-.4l-.15.28C430.41,97.8,430.55,97.93,430.59,97.75Z"/><polygon class="cls-2" points="365.11 68.72 365.47 68.69 365.47 68.67 365.11 68.72"/><path class="cls-2" d="M366.17,72.77l0,0C366,72.77,366.08,72.77,366.17,72.77Z"/><polygon class="cls-2" points="367.72 36.16 367.81 36.2 367.82 36.19 367.72 36.16"/><path class="cls-2" d="M367.81,36.2s-.13.16-.24.07c.16,0,.13.24.35.24S368,36.3,367.81,36.2Z"/><path class="cls-2" d="M366.39,76.55h0l-.27,0Z"/><path class="cls-2" d="M370.77,95.71l-.25.06.14,0A.19.19,0,0,0,370.77,95.71Z"/><path class="cls-2" d="M367.53,81.15h-.43c0,.3,0,.54.09.63h.12Z"/><path class="cls-2" d="M375.7,94.79v0C375.88,94.83,376,94.8,375.7,94.79Z"/><polygon class="cls-2" points="367.6 84.54 368.02 84.68 368.01 84.65 367.6 84.54"/><path class="cls-2" d="M367.44,90.94a.23.23,0,0,0,.11-.25C367.43,90.64,367.36,90.65,367.44,90.94Z"/><path class="cls-2" d="M375,97.07c-.07-.09-.22-.17-.29-.26l-.06.25C374.88,97.16,375.06,97.22,375,97.07Z"/><path class="cls-1" d="M65.15,44.43H83.72V55a21.67,21.67,0,0,1,6.13-8.56q3.89-3.21,10.5-2.91V63H98.79q-7.29,0-11.18,4.28T83.72,80.7V97H65.15Z"/><path class="cls-1" d="M133.61,98.3A30.65,30.65,0,0,1,122,96.16a28.17,28.17,0,0,1-9.19-5.88A26.48,26.48,0,0,1,104.63,71v-.2a26.25,26.25,0,0,1,2.19-10.64,27,27,0,0,1,6.08-8.76,29.1,29.1,0,0,1,9.23-5.93,30.54,30.54,0,0,1,11.67-2.19,30.14,30.14,0,0,1,11.62,2.19,29.5,29.5,0,0,1,9.19,5.89,26,26,0,0,1,6,8.65,26.6,26.6,0,0,1,2.14,10.6v.19a26.3,26.3,0,0,1-2.19,10.65,26.89,26.89,0,0,1-6.08,8.75,28.86,28.86,0,0,1-9.24,5.93A30.45,30.45,0,0,1,133.61,98.3Zm.19-15.75a11.07,11.07,0,0,0,4.57-.92,10,10,0,0,0,3.45-2.5A11.51,11.51,0,0,0,144,75.41a12.71,12.71,0,0,0,.78-4.43v-.2a12.43,12.43,0,0,0-.83-4.53,11.38,11.38,0,0,0-2.33-3.71A12,12,0,0,0,138.08,60a10.37,10.37,0,0,0-4.47-1,11,11,0,0,0-4.57.91,9.86,9.86,0,0,0-3.45,2.51,11.21,11.21,0,0,0-2.19,3.71,12.81,12.81,0,0,0-.78,4.44v.19a12.24,12.24,0,0,0,.83,4.54A11.06,11.06,0,0,0,125.78,79a11.66,11.66,0,0,0,3.55,2.55A10.23,10.23,0,0,0,133.8,82.55Z"/><path class="cls-1" d="M166.76,44.43h18.09l6.9,26.45,8.07-26.64h15.27l8.17,26.83,7.1-26.64h17.79l-16.24,53H216L207.41,70.1l-8.75,27.33H182.81Z"/><path class="cls-1" d="M275.28,98.11q-8.41,0-13.1-4T257.49,80.7V59.31h-6.23V44.43h6.23V31.11h18.57V44.43h12.25V59.31H276.06V77.1a5.45,5.45,0,0,0,1.26,4,5.28,5.28,0,0,0,3.79,1.21,13.53,13.53,0,0,0,3.6-.48,21.72,21.72,0,0,0,3.4-1.27V95.09a25.12,25.12,0,0,1-5.73,2.19A28.52,28.52,0,0,1,275.28,98.11Z"/><path class="cls-1" d="M447,72.05v-.19c0-16.44,12-26.16,24-26.16,9.33,0,15.36,5.06,19.25,10.69V26.06h7.49V97h-7.49V86.92c-4.08,6-10,11.19-19.25,11.19C459,98.11,447,88.58,447,72.05Zm43.56-.1v-.19c0-11.57-8.84-19.35-18.18-19.35-9.72,0-17.7,7.19-17.7,19.35V72c0,11.86,8.17,19.45,17.7,19.45C481.72,91.4,490.56,83.52,490.56,72Z"/><path class="cls-1" d="M511.37,72.15V72a26.21,26.21,0,0,1,52.41-.19V72A26.1,26.1,0,0,1,537.43,98.2,25.75,25.75,0,0,1,511.37,72.15Zm44.73,0V72c0-10.79-8.07-19.64-18.67-19.64-10.89,0-18.37,8.85-18.37,19.45V72c0,10.79,8,19.54,18.57,19.54C548.52,91.49,556.1,82.74,556.1,72.15Z"/><path class="cls-1" d="M568.55,112.4v-6.12a25.28,25.28,0,0,0,3.69.29c3.41,0,5.74-2,5.74-6.71V46.77h7.49V100c0,8.85-4.67,12.94-12.25,12.94A18.53,18.53,0,0,1,568.55,112.4Zm8.94-84.88h8.56v8.26h-8.56Z"/><path class="cls-1" d="M599.76,72.15V72a26.21,26.21,0,0,1,52.41-.19V72A26.1,26.1,0,0,1,625.82,98.2,25.75,25.75,0,0,1,599.76,72.15Zm44.73,0V72c0-10.79-8.07-19.64-18.67-19.64-10.89,0-18.38,8.85-18.38,19.45V72c0,10.79,8,19.54,18.57,19.54C636.9,91.49,644.49,82.74,644.49,72.15Z"/></g></g></svg>